<?xml version="1.0" encoding="UTF-8"?>
<svg id="Layer_1" xmlns="http://www.w3.org/2000/svg" version="1.1" viewBox="0 0 1080 293.3">
  <!-- Generator: Adobe Illustrator 30.6.0, SVG Export Plug-In . SVG Version: 2.1.4 Build 109)  -->
  <defs>
    <style>
      .st0 {
        fill: #ec0000;
      }

      .st1 {
        fill: #737373;
      }

      .st2 {
        fill: #fce5e5;
      }

      .st3 {
        fill: #555;
      }

      .st4 {
        fill: #fdebeb;
      }

      .st5 {
        fill: #858585;
      }

      .st6 {
        fill: #696969;
      }

      .st7 {
        fill: #fefbfb;
      }

      .st8 {
        fill: #949494;
      }

      .st9 {
        fill: gray;
      }

      .st10 {
        fill: #fefefe;
      }

      .st11 {
        fill: #101010;
      }
    </style>
  </defs>
  <g>
    <path d="M580,264.4l-38.5-7.1c-10.7-2-15.5-12.7-14.3-23.3l13.7-64.7c-14.9,11.1-31.3,17.6-49.9,18.7s-3.6.7-4.3,1.4c-3.3,3.3,1.1,19.5-5.6,26.3l-20.9,21.1c-3.7,3.7-10.6,4-15.8,3.4l-36.2-4.5c-5.5-.7-10.4-2.1-14.2-6.8-3.7,3.3-7.3,7.4-12.2,7.4h-28.5c-5.3.2-9.7-3.5-13.7-6.8-3.2,2.6-6.8,4.6-11.3,5.1l-38.6,4.5c-11.2,1.3-21-5.6-23.2-15.9l-18.8,18.3c-4.6,4.5-11.7,4.2-17.8,5l-31,4c-7.4,1-14.7-2.4-19.4-8.1-23.4,28.5-65.7,38.6-101.4,41.3-11,.8-22.2,2.5-32.2-2.9-8.3-4.5-11.6-13.5-13.9-22.1-3.7-13.8-12.4-35.6-4.3-43.8l19-19.5c3.3-3.4,7.1-4.8,11.4-6.4-33.5-4.3-51.8-24.7-56.2-57.5-2-14.9,1.7-30.8,11.6-42.7l26.2-26.4c21.2-21.4,102.5-36.4,115.2-13.9l7.4,13.1c-.8-10.1.8-18.4,7.6-25.2l13.8-13.6c4.5-4.4,9.6-5.5,15.8-6.3l17.9-2.2c12.4-1.5,22.3,7.2,24.4,19.2l8.9,52.2c.3,1.5,3.1.5,3.9-.1,1.2-1,2.2-2.8,1.2-4.8s-1.6-18.2-2.5-29.3c-.5-6.1-3-14.4,2.4-19.8l22.5-22.6c3.2-3.2,25.2-5.9,34.3-5.5,11.1.4,19.1,9.2,20.2,20.9l19.8-19.1c2.2-2.1,7.1-2.8,10.2-2.8h37.3c13.2-.2,23.3,9.4,24,23.1,7.4-6.4,12.7-14.1,21-18.9s13-2.2,19.8-2.1c26.1.5,51.9,5.8,75,17.5,13,6.6,22.7,16.3,31.6,27.7l18-17.6c4.1-4,10.4-3.9,15.7-3.5l13.4,1c28.9,2.1,65.9,14,86.2,35.3,6.6,7,12.9,14.1,15.8,24.1l22-21.5c30.3-25.1,85.4-23.1,115.6,4.3,4.9-6.5,12.1-9.9,21-10.6l16.6-1.2,15.6-1.3c11.3-.9,20.9,4.4,24.4,15.2l5.6,30.6,11.2-10.9c6.6-6.4,20.1-6.1,29.8-4.2,1-6.9,1.5-12.5,5.7-16.8l17.3-17.4c5.2-5.2,12.2-5,18.9-5.5l15.7-1.2,14.4-1.1c7.1-.6,13.2.7,18,5.6,4.8,4.8,6.7,11.4,6.2,18.6l-1.3,19.4-21.2,137.3c-4.7,30.8-7.5,29.3-31.2,51.6s-32.3,7.2-42.9,4.4c-6.1-1.6-10.3-7.7-13.5-12l-15,14.1c-5.5,5.2-14.4,2.8-21.6,4-21.7,3.4-32.7-4-39.6-24.3l-15.1-44.6c-4.2,10.8-8.8,20.6-16.7,28.5l-24.5,24.5c-16.9,17-52.6,22.3-76.7,16.4-49.6-9.4-69.6-52.2-70.1-100.7-15.2,14.9-34.8,22.6-56,23.4l-8.8.9c0,9.4-1.1,22-6.3,27.2l-19.2,18.9c-5.2,5.1-12.4,4.5-18.9,3.3ZM392.7,213c8.4,0,12.7-6.3,13.1-13.8l9.4-173.7c.4-8.2-4.9-14.2-13-14.3l-37.1-.3c-9.1,0-15.5,5.3-15.1,14.6l7.6,173.7c.4,8.2,5,13.6,13.7,13.7l21.4.2ZM194.9,167c0,.8-.5,1.8-1.4,1.8-4.4-13.3-14.9-22.8-28.1-27.9-23.3-9-48.3-4.5-68.1-9.9s-11.3-6.9-8.8-12.9c4.4-10.8,47.5-3.9,66.9-10.8s10.5-9.6,7.8-16.9c-4.2-11.2-7.2-22.5-12.4-33.1-3-6.1-7.8-10.2-15-10.7-39.3-2.8-98.5,8.7-108.9,48.4-4.5,17.2-.4,35.7,9.4,50.1,20.1,29.6,65.9,18.5,88.4,24.6,3.3.9,9.9,4.7,8,8.6-2.6,5.3-10.2,7.5-15.6,9.3-17.7,6.2-35.7,7.8-54.4,9.3s-9.2,2.2-11.5,5-3.8,8.3-3,13.1c2.3,12.8,6.1,25,10.8,37,2.1,5.2,7.7,8.3,13.2,8.4,39.6,1,93.8-8.3,117.5-40.8,3-4.1,5.3-8.5,6.1-13.4l2.3.7c0,3.8,0,7.3.9,10.9,1.6,5.9,7.4,9.7,13.6,9l38.5-4.6c7.1-.8,13.3-6.9,12-14.6l-13.5-79.2,33.4-4.1,6.2,79.8c.6,7.5,7.1,12.5,14.5,11.6l39.3-5c7.9-1,11.7-7.9,10.4-15.5l-29.3-171c-1.4-8.3-6.7-13.7-15.6-12.6l-21.4,2.7c-6.6.8-11.5,6.4-11,13.2l4.8,63.5-37.1,4.3-10.8-61.7c-1-7.3-7.1-11.8-14.4-10.9l-22.7,2.8c-5.3.7-11,5.8-10.5,12l9.4,129.3ZM480,163.9c19.1,2.1,35.2.8,51.2-5.1,31.9-12.1,45.6-44.9,42.2-77.6-5.7-53.9-71.4-69.5-120-68.4s-10,4.2-10.9,9.5l-30.6,174.4c-1.4,8,3.8,14.5,11.3,15.4l37.5,4.7c8.5,1.6,15.3-4.3,16-12.7l3.4-40.1ZM712.2,145.3c1.2.8,1.5,2.5,1.7,3.9-2.6,25.4-1.9,53.9,9.1,77.7,8.5,18.6,23.4,32.6,43.1,38.6,19.3,5.9,39.9,6.5,59-.2,19.5-6.8,33.6-22.1,41.9-40.9s11.8-36.4,12-55.2c.9-.1,1.3-1,1.3-2.3v-19.3c0-.9.7-1.3,1.1-1.2l36.4,108.6c2.4,7.3,9,12.4,16.4,12.5,9.5,0,18.8-.1,27.9-2.2,14.1-3.3,14.1-34.4,16.2-51.2,4.1,12.7,4.8,24,10.4,35.2,2.8,5.6,7.3,13.4,14.2,12.9l25.1-1.7c8.5-.6,15.3-7,16.8-15.8l20.2-124.6,5.4-49.3c.9-8.3-4.9-15.5-13.7-14.8l-40.5,3.4c-6.2.5-9.9,6.6-9.9,12.7v92.5c-.1,0-20.1-57.8-20.1-57.8-3-8.7-8.8-10.9-17.3-10.1-7.9.7-13.6,3.2-15.1,12l-10.1,59.3-2.2-2.5-13.1-86.5c-.8-5.4-5.4-12-11.1-11.6l-42.4,3.1c-6.7.5-11.4,7.1-10.4,13.5l1.4,8.3-1.3,1.2c-17.7-30.3-55.6-40.1-89.4-32.6-31.8,7-51.1,34.7-57.4,65.1h-1.4c3.6-24.6-6-48.4-26.4-63.2-24.4-17.8-56.9-24.4-87.2-25.8-8.1-.4-13.2,4.1-15,11.9l-37.3,169.9c-1.8,8.1,2.9,14.7,10.7,16l38,6.5c6.6,1.1,14.2-2.9,15-9.9l5.4-42.3c16.3,2.6,32.2,2.5,48-1.8,21.6-5.9,38.5-21.2,44.4-42.1ZM166.7,132.6c.7-7.3,1.1-14.5-1.3-21.1-6.4,6.1-11.1,12-17.8,16.5,6.9,1,12,1.8,19.1,4.5Z"/>
    <path class="st10" d="M392.7,213l-21.4-.2c-8.6,0-13.3-5.5-13.7-13.7l-7.6-173.7c-.4-9.3,6.1-14.6,15.1-14.6l37.1.3c8,0,13.4,6.1,13,14.3l-9.4,173.7c-.4,7.5-4.7,13.9-13.1,13.8Z"/>
    <path class="st9" d="M193.5,168.8c1,0,1.3-1,1.4-1.8,0,1.2,2.3,2.5.5,4.9-1.1-.8-1.5-1.6-2-3Z"/>
    <path class="st5" d="M198.1,206.9l-2.3-.7c.2-1.3.3-2,1.2-2.8s1.9.2,1.3,1.3-.2,1.5-.2,2.2Z"/>
    <path class="st0" d="M395.6,202.4h-27.8c0,.1-7.7-173.4-7.7-173.4,0-2.1-.7-7,1.3-7.6h43.8s-9.8,181.1-9.8,181.1Z"/>
    <g>
      <path class="st10" d="M480,163.9l-3.4,40.1c-.7,8.5-7.5,14.3-16,12.7l-37.5-4.7c-7.4-.9-12.7-7.4-11.3-15.4l30.6-174.4c.9-5.3,6-9.4,10.9-9.5,48.7-1.1,114.4,14.5,120,68.4,3.4,32.8-10.2,65.6-42.2,77.6-15.9,5.9-32.1,7.2-51.2,5.1Z"/>
      <path class="st0" d="M563.7,94.9c-2.7,34.2-20.3,54.2-54.4,59.1-13.3,1.9-25.9.4-38.8-1.3l-4.5,54.2-44.8-5.5,31.1-178.8c50.3-.9,115.9,15.1,111.4,72.3Z"/>
      <path class="st10" d="M537.5,97.2c-3.2,26.3-38.8,25.6-64.4,17.9l3.8-52.1c27-.2,63.9,6.9,60.6,34.3Z"/>
      <path d="M527.7,95.4c-1.2,16.1-26,16.3-44,12.1l2.7-34.3c18.3,1.3,42.5,6,41.4,22.3Z"/>
    </g>
    <g>
      <path class="st10" d="M198.1,206.9c-.8-1.4-1.5-1.7-2.3-.7-.7,4.9-3.1,9.4-6.1,13.4-23.8,32.5-78,41.8-117.5,40.8-5.4-.1-11.1-3.2-13.2-8.4-4.7-12-8.5-24.2-10.8-37s0-9.5,3-13.1,6.8-4.6,11.5-5c18.7-1.5,36.6-3.1,54.4-9.3,5.4-1.9,13-4.1,15.6-9.3,1.9-3.9-4.7-7.7-8-8.6-22.5-6.1-68.3,5-88.4-24.6s-13.9-33-9.4-50.1c10.4-39.8,69.7-51.2,108.9-48.4s11.9,4.6,15,10.7c5.3,10.6,8.3,22,12.4,33.1,2.7,7.3-.2,14.2-7.8,16.9-19.5,6.8-62.5,0-66.9,10.8s3.2,11.4,8.8,12.9c19.8,5.4,44.8.9,68.1,9.9s23.7,14.6,28.1,27.9c1.3.3,1.5-.5,1.4-1.8l-9.4-129.3c-.5-6.3,5.2-11.4,10.5-12l22.7-2.8c7.3-.9,13.5,3.6,14.4,10.9l10.8,61.7,37.1-4.3-4.8-63.5c-.5-6.8,4.4-12.4,11-13.2l21.4-2.7c8.9-1.1,14.2,4.2,15.6,12.6l29.3,171c1.3,7.7-2.5,14.5-10.4,15.5l-39.3,5c-7.4.9-13.9-4-14.5-11.6l-6.2-79.8-33.4,4.1,13.5,79.2c1.3,7.7-4.9,13.7-12,14.6l-38.5,4.6c-6.2.7-12-3-13.6-9s-1-7.1-.9-10.9Z"/>
      <path class="st0" d="M177.3,219.2c-23.6,24.7-70,32.3-104.4,31.3-2,0-4.7-1.6-5.3-3.5l-9.6-33.5c-.4-1.4,0-3.6.5-4.5s2.7-2,4.6-2.1c23-1.7,57.2-5.3,74.2-18.1,6.5-4.9,7.8-12.8,3.4-19.6-17.1-26.5-89.2,9.4-103.8-46.3-7.7-29.4,8.6-48.5,36.3-58.4,19.4-7,39.6-9.3,60.3-8.1,4.6.3,7.3,2.7,9,6.8,4.6,11,8.6,22.1,11.9,33.7-21.3,8.4-66.4-1.6-74.8,16-5.6,11.8,2.3,24.1,14.3,27.6,30.6,8.8,82.5-5.7,93.2,40.1,3.3,14.1.4,28-9.8,38.7Z"/>
      <path class="st7" d="M64,84.3c-20.5,13-9,32.4-15.4,32.9s-2.9-.7-3.3-2.6c-4.3-21.4,13.5-37.7,18.4-34.8,1,.6,1.7,3.6.2,4.5Z"/>
      <path class="st2" d="M49.7,122.2c1.5-1.5,3.4-.6,4,.1,1.2,1.3.9,3.5-.1,4.6s-3,.7-3.9-.2-1.8-2.8,0-4.5Z"/>
    </g>
    <path class="st0" d="M211.8,216.9c-2.7.4-3.4-2.6-3.6-4.8l-12.9-176.1,27.3-3.5,11.7,65.9c.8,4.2,3.8,7.7,8.5,7.2l39.6-4.6c4.5-.5,9-3.3,8.6-8.6l-4.9-67.3,27.5-3.4,30.6,178.8-44.5,5.6-6.9-85.6c-.3-3.8-4.2-6.8-7.9-6.3l-38.4,4.6c-4.9.6-7.7,4.6-6.9,9.5l14.2,83.1-41.8,5.6Z"/>
  </g>
  <g>
    <g>
      <path class="st10" d="M716.6,126.2c-.3,2.5-.1,4.9.6,7.1.2,1,0,2.6-1.8,1.9-.1,1.9-.4,4.1-1.8,5.3.9,1.2.3,4.5-1.3,4.8-5.9,20.9-22.8,36.3-44.4,42.1-15.8,4.3-31.7,4.4-48,1.8l-5.4,42.3c-.9,7-8.4,11-15,9.9l-38-6.5c-7.8-1.3-12.5-7.9-10.7-16l37.3-169.9c1.7-7.9,6.8-12.3,15-11.9,30.3,1.5,62.8,8.1,87.2,25.8,20.5,14.9,30,38.6,26.4,63.4Z"/>
      <path class="st6" d="M718.1,126c-.5,2.4-1.3,4.8-.9,7.3-3.1-1.8-.9-5.1-.6-7.1h1.4Z"/>
      <path class="st3" d="M715.4,135.2c1.5,2.2-.5,4-.6,5.3h-1.2c.5-1.7.6-4,1.8-5.3Z"/>
      <path class="st0" d="M703.2,141c-11.9,38.5-52.9,45.6-91.6,36.5l-7.5,54.4-44.3-7.8,38.9-176.9c31.4.7,67.3,7.7,90.9,28.3,19,17.9,21.2,41,13.5,65.6Z"/>
      <path class="st10" d="M680.3,127.1c-4.8,24.9-41,21.6-64.9,13.2l6.2-51.7c27.2.2,64.3,10.1,58.8,38.6Z"/>
      <path d="M670.5,125.4c-3,14.3-26.9,12.4-44.1,7.8l4-34.3c18.6,2,43.7,8.9,40.1,26.5Z"/>
    </g>
    <g>
      <g>
        <path class="st10" d="M881.4,146.5h-1.2c-.3,7.5-.8,15.1-1.2,22.8-.1,18.8-4.1,37.5-12,55.2s-22.4,34.1-41.9,40.9c-19.2,6.7-39.7,6.1-59,.2-19.7-6-34.6-20-43.1-38.6-10.9-23.8-11.7-52.3-9.1-77.7-.8-3.4-.6-6.3.9-8.6-.2-1.5,0-3.3.6-5.3-.1-1.3.4-2,1.8-1.9-1.5-2.3-.8-5.4.9-7.3,6.3-30.4,25.5-58.1,57.4-65.1,33.7-7.5,71.7,2.3,89.4,32.6.6.5,1,0,1.3-1.2l-1.4-8.3c-1-6.4,3.7-13,10.4-13.5l42.4-3.1c5.7-.4,10.3,6.1,11.1,11.6l13.1,86.5c1.3,1,1.7,6.1,1.4,5.3s0-2.6.8-2.8l10.1-59.3c1.5-8.8,7.2-11.3,15.1-12,8.5-.8,14.3,1.4,17.3,10.1l20,57.8v-92.5c.1-6.1,3.8-12.2,10-12.7l40.5-3.4c8.7-.7,14.6,6.5,13.7,14.8l-5.4,49.3-20.2,124.6c-1.4,8.8-8.3,15.2-16.8,15.8l-25.1,1.7c-6.9.5-11.4-7.3-14.2-12.9-5.6-11.2-6.3-22.5-10.4-35.2-2.2,16.8-2.1,47.9-16.2,51.2-9.1,2.1-18.4,2.3-27.9,2.2-7.4,0-14-5.2-16.4-12.5l-36.4-108.6ZM926.9,251.2c1.7,5.2,6.6,7.4,11,6.6,7-1.1,15.1.6,21.4-2.6,4.8-2.5,5.9-11.2,6.2-16.3l3.2-47c.3-4.6,2.7-8.3,7.4-8.8s7.5,2.4,8.4,6.8l7.2,36c2.4,11.9,6.8,27.4,15.8,26.6l18.2-1.5c4.2-.4,8.6-2.9,9.4-7.9l21.9-137.2,3.3-39.8-42.3,3.2c-2,1.5-1.8,6.2-1.8,8.8l.4,101.5c0,4.2-3.1,7.2-6.2,7.8-3.5.7-7.7-.9-9-4.9l-25.6-75c-3.9-1.2-7.9-.9-11.3.6l-4.6,23.3-9.1,54.5c-.8,4.5-4.4,7.4-8.6,6.9s-6.4-3.4-7.1-7.6l-15.1-96.3c-.7-4.2-.8-8-3.3-11.6l-42.6,3.6c2.6,17.2,7,32.4,12.4,48.6l40.2,121.9ZM800.5,259.9c25.7-.6,45.9-14.9,56.5-37.4,7.1-15.2,10.5-31.2,11.9-48.2,3.1-37.5-2.1-82.8-38.7-99-16.7-7.4-35.3-8.7-53.1-4.6-48.7,11.3-57.9,75.5-53.3,120.3,2.9,28,15.4,53.4,42.1,63.7,10.9,4.2,22.1,5.4,34.6,5.1Z"/>
        <path class="st1" d="M943.8,168c-.1.8.7,2.1-.4,3.8-1.8-2-1.5-4.2-1.8-6.3l2.2,2.5Z"/>
        <path class="st8" d="M864.8,93.5l1.3-1.2c.3,1.6,2,3.2.2,5.1l-1.5-3.9Z"/>
        <path class="st0" d="M926.9,251.2l-40.2-121.9c-5.3-16.2-9.8-31.4-12.4-48.6l42.6-3.6c2.5,3.6,2.5,7.4,3.3,11.6l15.1,96.3c.7,4.2,3.4,7.2,7.1,7.6s7.8-2.3,8.6-6.9l9.1-54.5,4.6-23.3c3.4-1.5,7.4-1.9,11.3-.6l25.6,75c1.3,4,5.5,5.6,9,4.9,3.1-.6,6.2-3.6,6.2-7.8l-.4-101.5c0-2.7-.2-7.3,1.8-8.8l42.3-3.2-3.3,39.8-21.9,137.2c-.8,5-5.2,7.6-9.4,7.9l-18.2,1.5c-8.9.8-13.4-14.7-15.8-26.6l-7.2-36c-.9-4.5-4.7-7.3-8.4-6.8s-7,4.2-7.4,8.8l-3.2,47c-.3,5.1-1.4,13.8-6.2,16.3-6.3,3.2-14.4,1.5-21.4,2.6s-9.3-1.4-11-6.6Z"/>
      </g>
      <g>
        <path class="st11" d="M881.4,146.5c-.4-.1-1.1.3-1.1,1.2v19.3c0,1.3-.4,2.2-1.3,2.3l.2-27.8c1.6,1.5,1.7,3.4,2.2,5Z"/>
        <path class="st11" d="M713.9,149.2c-.2-1.5-.5-3.1-1.7-3.9l1.3-4.8c.4-1,.8-1,1.2,0l-.9,8.6Z"/>
        <path class="st0" d="M800.5,259.9c-12.5.3-23.7-.9-34.6-5.1-26.7-10.3-39.3-35.7-42.1-63.7-4.6-44.9,4.7-109.1,53.3-120.3,17.7-4.1,36.3-2.8,53.1,4.6,36.6,16.1,41.8,61.5,38.7,99-1.4,17-4.8,33-11.9,48.2-10.5,22.4-30.8,36.8-56.5,37.4ZM832,117.1c-3.8-15.7-15.7-26.2-30.4-27.3-39.6-3.1-47.1,52.9-38.7,87.4,3.8,15.6,16,25.7,30.5,26.7,39.5,2.6,46.8-52.6,38.6-86.7ZM851.3,209c0-1.9-.2-3.2-1.4-4-1-.7-2.3-.5-3,0-3,1.8,1,22.2-22.5,33.3s-2.2,2.4-2,3.7c1,7.3,28.1-7.9,29-33ZM817,241.6c-1.9,1.1-2,3.1-1,4.5s2.8,1.8,4.3.6,1.3-3,.5-4.3-2.4-1.7-3.8-.9Z"/>
        <path class="st10" d="M832,117.1c8.2,34.2,1,89.3-38.6,86.7-14.5-.9-26.7-11-30.5-26.7-8.4-34.5-.9-90.5,38.7-87.4,14.7,1.2,26.7,11.6,30.4,27.3ZM821.7,117.8c-3.1-10.9-11.5-17.4-21.4-18.1-29.5-2.1-34.7,46.8-27.8,74.9,2.8,11.3,11.6,18.8,21.9,19.3,30.3,1.5,35-48.7,27.3-76.1Z"/>
        <path class="st7" d="M851.3,209c-.8,25.1-28,40.3-29,33-.2-1.4.2-2.9,2-3.7,23.5-11.1,19.5-31.5,22.5-33.3s2-.6,3,0c1.1.8,1.4,2.1,1.4,4Z"/>
        <path class="st4" d="M817,241.6c1.4-.8,3.1-.2,3.8.9s.5,3.4-.5,4.3-3.3.6-4.3-.6-.8-3.4,1-4.5Z"/>
        <path d="M821.7,117.8c7.7,27.4,3,77.6-27.3,76.1-10.3-.5-19.1-8-21.9-19.3-7-28.1-1.8-77.1,27.8-74.9,9.9.7,18.3,7.2,21.4,18.1ZM797.5,184c4.7-14.2,5.5-39.5-.1-51.9-2.8-6.2-8.7-9.7-15.4-8.2-3.8,13.5-5,27.3-3.2,41.1,1.6,12.5,9.2,23.2,18.7,19Z"/>
      </g>
    </g>
  </g>
</svg>